<?xml version="1.0" standalone="no"?>
<!DOCTYPE svg PUBLIC "-//W3C//DTD SVG 20010904//EN"
 "http://www.w3.org/TR/2001/REC-SVG-20010904/DTD/svg10.dtd">
<svg version="1.0" xmlns="http://www.w3.org/2000/svg"
 width="300.000000pt" height="300.000000pt" viewBox="0 0 300.000000 300.000000"
 preserveAspectRatio="xMidYMid meet">
<metadata>
Created by potrace 1.14, written by Peter Selinger 2001-2017
</metadata>
<g transform="translate(0.000000,300.000000) scale(0.100000,-0.100000)"
fill="#000000" stroke="none">
<path d="M1374 2866 c-144 -33 -254 -96 -357 -206 -76 -80 -126 -166 -159
-270 -33 -107 -33 -283 0 -390 36 -114 86 -195 176 -286 141 -141 279 -199
476 -199 197 0 335 58 476 199 90 91 140 172 176 286 33 107 33 283 0 390 -36
114 -86 195 -176 286 -133 133 -267 192 -451 200 -64 2 -122 -1 -161 -10z
m261 -61 c39 -8 108 -33 154 -56 239 -118 380 -400 331 -659 -6 -30 -12 -55
-14 -57 -2 -3 -48 19 -102 47 -93 49 -102 52 -159 48 -46 -3 -84 -15 -165 -53
-143 -68 -183 -68 -332 -2 -143 63 -178 63 -308 2 -52 -25 -102 -45 -111 -45
-21 0 -28 26 -35 130 -27 403 346 728 741 645z m361 -763 c52 -26 94 -53 94
-60 0 -8 -17 -46 -37 -86 -55 -104 -156 -202 -264 -255 -189 -93 -369 -93
-558 0 -108 53 -209 151 -264 255 -44 86 -46 104 -11 104 14 0 60 18 102 40
117 61 129 61 272 0 68 -30 143 -55 170 -58 48 -4 75 5 280 94 69 30 95 26
216 -34z"/>
<path d="M1362 2524 c-115 -34 -207 -77 -227 -107 -15 -24 -15 -30 -1 -79 23
-78 148 -218 194 -218 27 0 52 26 52 53 0 29 -21 59 -88 129 -30 31 -52 60
-48 66 3 5 60 45 126 88 66 43 120 82 120 86 0 14 -42 8 -128 -18z"/>
<path d="M1474 2301 c-47 -29 -64 -59 -64 -113 0 -41 5 -54 34 -86 32 -34 39
-37 90 -37 51 0 59 3 92 36 64 65 52 150 -28 199 -41 25 -84 25 -124 1z"/>
<path d="M625 1566 c-250 -58 -433 -222 -512 -461 -23 -69 -27 -96 -27 -205 0
-109 4 -136 27 -205 36 -109 90 -196 168 -274 80 -79 166 -132 274 -168 69
-23 96 -27 205 -27 109 0 136 4 205 27 108 36 195 89 274 168 79 79 132 166
168 274 23 69 27 96 27 205 0 109 -4 136 -27 205 -92 278 -332 459 -622 471
-64 2 -122 -1 -160 -10z m260 -61 c296 -62 513 -344 491 -640 -5 -75 -27 -164
-57 -228 l-13 -28 -18 59 c-22 72 -80 141 -144 172 -60 29 -176 25 -242 -9
-175 -90 -268 -319 -202 -493 11 -28 18 -53 16 -55 -2 -2 -36 3 -76 11 -96 20
-200 69 -200 93 0 47 -22 354 -35 486 -16 163 -31 209 -77 233 -27 14 -30 14
-58 -15 -24 -24 -30 -38 -30 -74 0 -51 30 -190 93 -429 24 -93 40 -168 37
-168 -4 0 -26 21 -50 46 -36 40 -41 50 -36 78 8 42 -11 140 -35 189 -11 21
-40 58 -65 81 -40 39 -44 47 -44 92 0 81 27 184 71 273 121 246 404 383 674
326z m210 -686 c85 -22 153 -108 171 -217 5 -32 2 -48 -16 -76 -58 -95 -228
-202 -365 -231 -101 -21 -112 -20 -135 17 -96 158 8 426 193 497 60 23 91 25
152 10z"/>
<path d="M901 1423 c-95 -48 -93 -191 3 -237 42 -20 67 -20 110 -2 69 29 101
109 69 173 -35 71 -115 100 -182 66z"/>
<path d="M680 1250 c-25 -25 -25 -34 4 -95 69 -148 227 -240 431 -250 90 -5
90 -5 40 8 -77 21 -192 83 -247 135 -32 30 -64 75 -89 124 -21 42 -48 82 -58
88 -30 16 -59 12 -81 -10z"/>
<path d="M420 1081 c-31 -58 3 -99 123 -146 37 -15 67 -31 67 -36 0 -5 -31
-72 -70 -149 -103 -205 -97 -209 63 -36 158 172 170 223 71 304 -90 75 -229
109 -254 63z"/>
<path d="M2135 1564 c-195 -42 -368 -178 -455 -359 -135 -279 -66 -598 175
-803 101 -87 281 -152 420 -152 248 0 487 151 595 375 135 279 66 598 -175
803 -143 123 -366 177 -560 136z m283 -59 c122 -29 245 -107 329 -210 178
-217 178 -543 0 -760 -84 -103 -207 -181 -329 -210 -113 -26 -283 -14 -372 26
-27 13 -26 13 39 35 85 29 136 64 163 113 18 32 20 44 12 67 -27 70 -191 224
-288 270 -98 46 -152 31 -152 -45 0 -26 8 -44 32 -68 l31 -33 -49 -54 c-27
-29 -54 -54 -60 -55 -16 -1 -72 119 -89 192 -19 80 -19 205 0 285 50 212 232
395 443 446 76 19 212 19 290 1z m-340 -935 c17 -11 32 -26 32 -33 0 -20 -36
-49 -111 -90 l-66 -36 -32 27 -31 27 82 62 c46 34 85 62 88 62 3 1 20 -8 38
-19z"/>
<path d="M1895 1327 c-40 -19 -82 -63 -108 -112 -23 -45 -36 -202 -20 -244 9
-21 11 -17 27 40 42 150 110 226 177 200 13 -5 55 -34 92 -65 79 -65 124 -74
146 -32 55 102 -191 269 -314 213z"/>
<path d="M2370 1277 c-29 -15 -70 -72 -70 -99 0 -37 29 -88 62 -108 70 -43
160 -11 187 65 12 35 11 45 -2 77 -28 66 -113 97 -177 65z"/>
<path d="M2827 1036 c-22 -54 -84 -126 -142 -166 -76 -53 -119 -36 -155 60
-22 58 -58 100 -86 100 -23 0 -54 -51 -54 -89 0 -83 93 -203 167 -217 119 -22
300 171 291 311 l-3 45 -18 -44z"/>
</g>
</svg>
